<?xml version="1.0" encoding="utf-8"?>
<!-- Generator: Adobe Illustrator 16.2.1, SVG Export Plug-In . SVG Version: 6.00 Build 0)  -->
<!DOCTYPE svg PUBLIC "-//W3C//DTD SVG 1.1//EN" "http://www.w3.org/Graphics/SVG/1.1/DTD/svg11.dtd">
<svg version="1.1" xmlns="http://www.w3.org/2000/svg" xmlns:xlink="http://www.w3.org/1999/xlink" x="0px" y="0px" width="1228px"
	 height="1196px" viewBox="0 0 1228 1196" enable-background="new 0 0 1228 1196" xml:space="preserve">
<g id="Calque_1" display="none">
	<rect x="-10" display="inline" width="1248" height="1552"/>
</g>
<g id="Calque_2" display="none">
	<line display="inline" fill="none" stroke="#FFFFFF" stroke-miterlimit="10" x1="482.226" y1="251.225" x2="87.871" y2="523"/>
	<line display="inline" fill="none" stroke="#FFFFFF" stroke-miterlimit="10" x1="77.387" y1="630.257" x2="587.064" y2="246.387"/>
	<line display="inline" fill="none" stroke="#FFFFFF" stroke-miterlimit="10" x1="45.129" y1="782.677" x2="744.322" y2="222.193"/>
	<line display="inline" fill="none" stroke="#FFFFFF" stroke-miterlimit="10" x1="4.807" y1="1032.677" x2="921.742" y2="202.031"/>
	
		<line display="inline" fill="none" stroke="#FFFFFF" stroke-miterlimit="10" x1="97.548" y1="1158.482" x2="1093.516" y2="169.772"/>
	
		<line display="inline" fill="none" stroke="#FFFFFF" stroke-miterlimit="10" x1="233.032" y1="1297.192" x2="1061.258" y2="280.256"/>
	
		<line display="inline" fill="none" stroke="#FFFFFF" stroke-miterlimit="10" x1="482.226" y1="1339.933" x2="1140.29" y2="259.287"/>
	
		<line display="inline" fill="none" stroke="#FFFFFF" stroke-miterlimit="10" x1="651.581" y1="1311.706" x2="1132.226" y2="352.835"/>
	
		<line display="inline" fill="none" stroke="#FFFFFF" stroke-miterlimit="10" x1="814.322" y1="1306.867" x2="1162.71" y2="364.932"/>
	
		<line display="inline" fill="none" stroke="#FFFFFF" stroke-miterlimit="10" x1="937.549" y1="1316.545" x2="1185.936" y2="442.352"/>
	<polyline display="inline" fill="none" stroke="#FFFFFF" stroke-miterlimit="10" points="137.938,488.496 146.057,578.538 
		165.415,686.254 222.025,835.899 300.715,956.796 426.458,1059.694 601.567,1143.955 723.663,1167.905 861.039,1180.561 
		973.964,1188.383 	"/>
	<polyline display="inline" fill="none" stroke="#FFFFFF" stroke-miterlimit="10" points="208.649,442.513 219.701,523.081 
		239.854,626.584 292.686,776.021 378.619,879.458 505.75,962.334 673.859,1025.237 787.498,1040.716 908.152,1053.5 1012,1053.5 	
		"/>
	<polyline display="inline" fill="none" stroke="#FFFFFF" stroke-miterlimit="10" points="97.5,516 97.5,615 105.271,734.466 
		159.758,892.308 221.397,1035.535 354.399,1148.172 539.209,1246.191 673.074,1268.5 828,1268.5 957.072,1247.834 	"/>
	<rect x="265" y="505" display="inline" width="700" height="600"/>
</g>
<g id="Calque_3">
	<rect x="162" y="196" fill="none" stroke="#FFFFFF" stroke-width="2" stroke-miterlimit="10" width="904" height="790"/>
	
		<rect x="162.484" y="195.924" transform="matrix(-0.9836 -0.1805 0.1805 -0.9836 1111.2188 1283.1349)" fill="none" stroke="#FFFFFF" stroke-width="2" stroke-miterlimit="10" width="903.032" height="790.152"/>
	
		<rect x="162.484" y="195.924" transform="matrix(-0.8413 -0.5405 0.5405 -0.8413 811.1202 1420.1079)" fill="none" stroke="#FFFFFF" stroke-width="2" stroke-miterlimit="10" width="903.031" height="790.152"/>
	
		<rect x="162.483" y="195.924" transform="matrix(-0.3103 -0.9506 0.9506 -0.3103 242.7263 1358.0939)" fill="none" stroke="#FFFFFF" stroke-width="2" stroke-miterlimit="10" width="903.032" height="790.152"/>
</g>
</svg>
